<?xml version="1.0" encoding="utf-8"?>
<!-- Generator: Adobe Illustrator 26.1.0, SVG Export Plug-In . SVG Version: 6.00 Build 0)  -->
<svg version="1.1" baseProfile="tiny" id="Layer_1" xmlns="http://www.w3.org/2000/svg" xmlns:xlink="http://www.w3.org/1999/xlink"
	 x="0px" y="0px" viewBox="0 0 1080 1080" overflow="visible" xml:space="preserve">
<image width="974" height="974" xlink:href="CB73E88C.jpg"  transform="matrix(1 0 0 1 1321.0638 73.0638)">
</image>
<polygon fill="none" stroke="#000000" stroke-width="7" stroke-linecap="round" stroke-linejoin="round" stroke-miterlimit="10" points="
	1452.7,659.1 1704.9,509 1731.5,462 1731.5,181.2 1759,181.2 1759,160.7 1845.9,160.7 1845.9,181.2 1884.7,181.2 1884.7,463 
	1912.2,504.9 2162.4,647.9 2150.2,672.4 2162.4,681.6 2125.7,757.2 2106.3,752.1 2085.9,789.9 1840.7,648.9 1840.7,750 2014.4,750 
	2014.4,784.7 2050.1,784.7 2050.1,910.4 2017.4,910.4 2017.4,961.4 1605.9,961.4 1605.9,914.4 1573.2,914.4 1573.2,789.9 
	1606.9,789.9 1606.9,751 1781.5,751 1781.5,644.8 1532.3,793.9 1519,772.5 1497.6,782.7 1455.6,709.9 1472.1,697.9 "/>
<polygon fill="none" stroke="#000000" stroke-width="3" stroke-linecap="round" stroke-linejoin="round" stroke-miterlimit="10" points="
	1739.1,466.1 1876,466.1 1905.1,521.8 1840.7,632.6 1780.5,632.6 1710,514.6 "/>
<rect x="1830.5" y="393.6" fill="none" stroke="#000000" stroke-width="3" stroke-linecap="round" stroke-linejoin="round" stroke-miterlimit="10" width="40.9" height="48"/>
<polygon fill="none" stroke="#000000" stroke-width="3" stroke-linecap="round" stroke-linejoin="round" stroke-miterlimit="10" points="
	1885.7,605.5 1864.7,641.3 1908.1,664.2 1927.6,630 "/>
<polygon fill="none" stroke="#000000" stroke-miterlimit="10" points="1650.8,563.1 1672.7,596.3 1714.6,573.3 1694.2,535.6 "/>
<polygon fill="#C98686" points="185.1,638 437.4,487.9 463.9,440.9 463.9,160.1 491.5,160.1 491.5,139.7 578.3,139.7 578.3,160.1 
	617.1,160.1 617.1,442 644.7,483.8 894.9,626.8 882.6,651.3 894.9,660.5 858.1,736.1 838.7,731 818.3,768.8 573.2,627.8 
	573.2,728.9 746.8,728.9 746.8,763.7 782.6,763.7 782.6,889.3 749.9,889.3 749.9,940.3 338.3,940.3 338.3,893.4 305.6,893.4 
	305.6,768.8 339.3,768.8 339.3,730 514,730 514,623.7 264.8,772.9 251.5,751.4 230,761.6 188.1,688.9 204.5,676.9 "/>
<polygon fill="#E7CFBC" points="471.6,445 608.4,445 636,491.6 573.2,611.5 512.9,611.5 442.5,493.5 "/>
<rect x="502" y="516.8" fill="none" width="74.5" height="12.1"/>
<text transform="matrix(1 0 0 1 516.2881 528.6849)" fill="#4D4D4D" font-family="'Poppins-Regular'" font-size="16px">dome</text>
<rect x="506.4" y="60" fill="none" width="55.7" height="48.3"/>
<text transform="matrix(1 0 0 1 513.1575 104.378)" font-family="'Poppins-Italic'" font-size="60px">N</text>
<rect x="83.4" y="170.3" fill="none" width="343.4" height="131.4"/>
<text transform="matrix(1 0 0 1 133.183 214.7332)" font-family="'Poppins-Italic'" font-size="60px">second </text>
<text transform="matrix(1 0 0 1 161.5912 286.7332)" font-family="'Poppins-Italic'" font-size="60px">floor</text>
<rect x="93.9" y="713.2" fill="none" width="67.9" height="53.2"/>
<text transform="matrix(1 0 0 1 98.5587 757.5852)" font-family="'Poppins-Italic'" font-size="60px">w</text>
<rect x="506.4" y="971.7" fill="none" width="55.7" height="48.3"/>
<text transform="matrix(1 0 0 1 516.7879 1016.0811)" font-family="'Poppins-Italic'" font-size="60px">s</text>
<rect x="918.2" y="691.6" fill="none" width="55.7" height="48.3"/>
<text transform="matrix(1 0 0 1 930.7035 735.9959)" font-family="'Poppins-Italic'" font-size="60px">e</text>
</svg>
