<?xml version="1.0" encoding="utf-8"?>
<!-- Generator: Adobe Illustrator 26.1.0, SVG Export Plug-In . SVG Version: 6.00 Build 0)  -->
<svg version="1.1" baseProfile="tiny" id="Layer_1" xmlns="http://www.w3.org/2000/svg" xmlns:xlink="http://www.w3.org/1999/xlink"
	 x="0px" y="0px" viewBox="0 0 1080 1080" overflow="visible" xml:space="preserve">
<polygon fill="#C98686" points="185.1,638 437.4,487.9 463.9,440.9 463.9,160.1 491.5,160.1 491.5,139.7 578.3,139.7 578.3,160.1 
	617.1,160.1 617.1,442 644.7,483.8 894.9,626.8 882.6,651.3 894.9,660.5 858.1,736.1 838.7,731 818.3,768.8 573.2,627.8 
	573.2,728.9 746.8,728.9 746.8,763.7 782.6,763.7 782.6,889.3 749.9,889.3 749.9,940.3 338.3,940.3 338.3,893.4 305.6,893.4 
	305.6,768.8 339.3,768.8 339.3,730 514,730 514,623.7 264.8,772.9 251.5,751.4 230,761.6 188.1,688.9 204.5,676.9 "/>
<polygon fill="#E7CFBC" points="471.6,445 608.4,445 636,491.6 573.2,611.5 512.9,611.5 442.5,493.5 "/>
<rect x="563" y="372.5" fill="#966B9D" stroke="#FFFFFF" stroke-width="2" stroke-linecap="round" stroke-linejoin="round" stroke-miterlimit="10" width="40.9" height="48"/>
<rect x="615.6" y="597.1" transform="matrix(0.4756 -0.8797 0.8797 0.4756 -212.8433 885.2552)" fill="#966B9D" stroke="#FFFFFF" stroke-width="2.0001" stroke-linecap="round" stroke-linejoin="round" stroke-miterlimit="10.0003" width="40.9" height="48"/>
<rect x="387.7" y="526.4" transform="matrix(0.8672 -0.4979 0.4979 0.8672 -217.617 277.6049)" fill="#966B9D" stroke="#FFFFFF" stroke-width="1.9999" stroke-linecap="round" stroke-linejoin="round" stroke-miterlimit="9.9997" width="48" height="40.9"/>
<rect x="502" y="516.8" fill="none" width="74.5" height="12.1"/>
<text transform="matrix(1 0 0 1 516.2881 528.6849)" fill="#4D4D4D" font-family="'Poppins-Regular'" font-size="16px">dome</text>
<rect x="506.4" y="60" fill="none" width="55.7" height="48.3"/>
<text transform="matrix(1 0 0 1 513.1575 104.378)" font-family="'Poppins-Italic'" font-size="60px">N</text>
<rect x="93.9" y="713.2" fill="none" width="67.9" height="53.2"/>
<text transform="matrix(1 0 0 1 98.5587 757.5852)" font-family="'Poppins-Italic'" font-size="60px">w</text>
<rect x="506.4" y="971.7" fill="none" width="55.7" height="48.3"/>
<text transform="matrix(1 0 0 1 516.7879 1016.0811)" font-family="'Poppins-Italic'" font-size="60px">s</text>
<rect x="918.2" y="691.6" fill="none" width="55.7" height="48.3"/>
<text transform="matrix(1 0 0 1 930.7035 735.9959)" font-family="'Poppins-Italic'" font-size="60px">e</text>
<rect x="68.3" y="184.7" fill="none" width="343.4" height="131.4"/>
<text transform="matrix(1 0 0 1 125.8483 229.0756)" font-family="'Poppins-Italic'" font-size="60px">fourth </text>
<text transform="matrix(1 0 0 1 146.5173 301.0756)" font-family="'Poppins-Italic'" font-size="60px">floor</text>
</svg>
